<?xml version="1.0" encoding="utf-8"?>
<svg version="1.1" xmlns:xlink="http://www.w3.org/1999/xlink" width="32px" height="32px" xmlns="http://www.w3.org/2000/svg">
  <g transform="matrix(1 0 0 1 -382 -349 )">
    <path d="M 382.5 353  A 3.5 3.5 0 0 1 386 349.5 L 410 349.5  A 3.5 3.5 0 0 1 413.5 353 L 413.5 377  A 3.5 3.5 0 0 1 410 380.5 L 386 380.5  A 3.5 3.5 0 0 1 382.5 377 L 382.5 353  Z " fill-rule="nonzero" fill="#ffffff" stroke="none" fill-opacity="0" />
    <path d="M 382.5 353  A 3.5 3.5 0 0 1 386 349.5 L 410 349.5  A 3.5 3.5 0 0 1 413.5 353 L 413.5 377  A 3.5 3.5 0 0 1 410 380.5 L 386 380.5  A 3.5 3.5 0 0 1 382.5 377 L 382.5 353  Z " stroke-width="1" stroke="#2c8cf0" fill="none" />
  </g>
</svg>