<?xml version="1.0" encoding="utf-8"?>
<svg version="1.1" xmlns:xlink="http://www.w3.org/1999/xlink" width="44px" height="22px" xmlns="http://www.w3.org/2000/svg">
  <g>
    <path d="M 0.5 11  A 10.5 10.5 0 0 1 11 0.5 L 33 0.5  A 10.5 10.5 0 0 1 43.5 11 A 10.5 10.5 0 0 1 33 21.5 L 11 21.5  A 10.5 10.5 0 0 1 0.5 11 Z " fill-rule="nonzero" fill="#ebebeb" stroke="none" />
    <path d="M 0.5 11  A 10.5 10.5 0 0 1 11 0.5 L 33 0.5  A 10.5 10.5 0 0 1 43.5 11 A 10.5 10.5 0 0 1 33 21.5 L 11 21.5  A 10.5 10.5 0 0 1 0.5 11 Z " stroke-width="1" stroke="#ebebeb" fill="none" />
  </g>
</svg>