<?xml version="1.0" encoding="utf-8"?>
<svg version="1.1" xmlns:xlink="http://www.w3.org/1999/xlink" width="53px" height="23px" xmlns="http://www.w3.org/2000/svg">
  <g transform="matrix(1 0 0 1 -863 -467 )">
    <path d="M 863.5 470  A 2.5 2.5 0 0 1 866 467.5 L 913 467.5  A 2.5 2.5 0 0 1 915.5 470 L 915.5 487  A 2.5 2.5 0 0 1 913 489.5 L 866 489.5  A 2.5 2.5 0 0 1 863.5 487 L 863.5 470  Z " fill-rule="nonzero" fill="#18be6b" stroke="none" />
    <path d="M 863.5 470  A 2.5 2.5 0 0 1 866 467.5 L 913 467.5  A 2.5 2.5 0 0 1 915.5 470 L 915.5 487  A 2.5 2.5 0 0 1 913 489.5 L 866 489.5  A 2.5 2.5 0 0 1 863.5 487 L 863.5 470  Z " stroke-width="1" stroke="#18be6b" fill="none" />
  </g>
</svg>