<?xml version="1.0" encoding="utf-8"?>
<svg version="1.1" xmlns:xlink="http://www.w3.org/1999/xlink" width="12px" height="12px" xmlns="http://www.w3.org/2000/svg">
  <g transform="matrix(1 0 0 1 -474 -624 )">
    <path d="M 480 624  C 483.36 624  486 626.64  486 630  C 486 633.36  483.36 636  480 636  C 476.64 636  474 633.36  474 630  C 474 626.64  476.64 624  480 624  Z " fill-rule="nonzero" fill="#ed4014" stroke="none" />
    <path d="M 480 624.5  C 483.08 624.5  485.5 626.92  485.5 630  C 485.5 633.08  483.08 635.5  480 635.5  C 476.92 635.5  474.5 633.08  474.5 630  C 474.5 626.92  476.92 624.5  480 624.5  Z " stroke-width="1" stroke="#ed4014" fill="none" />
  </g>
</svg>