<?xml version="1.0" encoding="utf-8"?>
<svg version="1.1" xmlns:xlink="http://www.w3.org/1999/xlink" width="53px" height="23px" xmlns="http://www.w3.org/2000/svg">
  <g transform="matrix(1 0 0 1 -926 -467 )">
    <path d="M 926.5 470  A 2.5 2.5 0 0 1 929 467.5 L 976 467.5  A 2.5 2.5 0 0 1 978.5 470 L 978.5 487  A 2.5 2.5 0 0 1 976 489.5 L 929 489.5  A 2.5 2.5 0 0 1 926.5 487 L 926.5 470  Z " fill-rule="nonzero" fill="#ed4014" stroke="none" />
    <path d="M 926.5 470  A 2.5 2.5 0 0 1 929 467.5 L 976 467.5  A 2.5 2.5 0 0 1 978.5 470 L 978.5 487  A 2.5 2.5 0 0 1 976 489.5 L 929 489.5  A 2.5 2.5 0 0 1 926.5 487 L 926.5 470  Z " stroke-width="1" stroke="#ed4014" fill="none" />
  </g>
</svg>