<?xml version="1.0" encoding="utf-8"?>
<svg version="1.1" xmlns:xlink="http://www.w3.org/1999/xlink" width="8px" height="8px" xmlns="http://www.w3.org/2000/svg">
  <g transform="matrix(1 0 0 1 -315 -613 )">
    <path d="M 319 613  C 321.24 613  323 614.76  323 617  C 323 619.24  321.24 621  319 621  C 316.76 621  315 619.24  315 617  C 315 614.76  316.76 613  319 613  Z " fill-rule="nonzero" fill="#2c8cf0" stroke="none" />
    <path d="M 319 613.5  C 320.96 613.5  322.5 615.04  322.5 617  C 322.5 618.96  320.96 620.5  319 620.5  C 317.04 620.5  315.5 618.96  315.5 617  C 315.5 615.04  317.04 613.5  319 613.5  Z " stroke-width="1" stroke="#ffffff" fill="none" />
  </g>
</svg>