<?xml version="1.0" encoding="utf-8"?>
<svg version="1.1" xmlns:xlink="http://www.w3.org/1999/xlink" width="96px" height="40px" xmlns="http://www.w3.org/2000/svg">
  <defs>
    <filter x="226px" y="292px" width="96px" height="40px" filterUnits="userSpaceOnUse" id="filter598">
      <feOffset dx="0" dy="1" in="SourceAlpha" result="shadowOffsetInner" />
      <feGaussianBlur stdDeviation="2" in="shadowOffsetInner" result="shadowGaussian" />
      <feComposite in2="shadowGaussian" operator="atop" in="SourceAlpha" result="shadowComposite" />
      <feColorMatrix type="matrix" values="0 0 0 0 0.172549019607843  0 0 0 0 0.549019607843137  0 0 0 0 0.941176470588235  0 0 0 1 0  " in="shadowComposite" />
    </filter>
    <g id="widget599">
      <path d="M 230.5 299  A 3.5 3.5 0 0 1 234 295.5 L 314 295.5  A 3.5 3.5 0 0 1 317.5 299 L 317.5 323  A 3.5 3.5 0 0 1 314 326.5 L 234 326.5  A 3.5 3.5 0 0 1 230.5 323 L 230.5 299  Z " fill-rule="nonzero" fill="#ffffff" stroke="none" fill-opacity="0" />
      <path d="M 230.5 299  A 3.5 3.5 0 0 1 234 295.5 L 314 295.5  A 3.5 3.5 0 0 1 317.5 299 L 317.5 323  A 3.5 3.5 0 0 1 314 326.5 L 234 326.5  A 3.5 3.5 0 0 1 230.5 323 L 230.5 299  Z " stroke-width="1" stroke="#2c8cf0" fill="none" />
    </g>
  </defs>
  <g transform="matrix(1 0 0 1 -226 -292 )">
    <use xlink:href="#widget599" filter="url(#filter598)" />
    <use xlink:href="#widget599" />
  </g>
</svg>