<?xml version="1.0" encoding="utf-8"?>
<svg version="1.1" xmlns:xlink="http://www.w3.org/1999/xlink" width="96px" height="44px" xmlns="http://www.w3.org/2000/svg">
  <defs>
    <filter x="447px" y="452px" width="96px" height="44px" filterUnits="userSpaceOnUse" id="filter602">
      <feOffset dx="0" dy="1" in="SourceAlpha" result="shadowOffsetInner" />
      <feGaussianBlur stdDeviation="2" in="shadowOffsetInner" result="shadowGaussian" />
      <feComposite in2="shadowGaussian" operator="atop" in="SourceAlpha" result="shadowComposite" />
      <feColorMatrix type="matrix" values="0 0 0 0 0.172549019607843  0 0 0 0 0.549019607843137  0 0 0 0 0.941176470588235  0 0 0 1 0  " in="shadowComposite" />
    </filter>
    <g id="widget603">
      <path d="M 451.5 459  A 3.5 3.5 0 0 1 455 455.5 L 535 455.5  A 3.5 3.5 0 0 1 538.5 459 L 538.5 487  A 3.5 3.5 0 0 1 535 490.5 L 455 490.5  A 3.5 3.5 0 0 1 451.5 487 L 451.5 459  Z " fill-rule="nonzero" fill="#ffffff" stroke="none" fill-opacity="0" />
      <path d="M 451.5 459  A 3.5 3.5 0 0 1 455 455.5 L 535 455.5  A 3.5 3.5 0 0 1 538.5 459 L 538.5 487  A 3.5 3.5 0 0 1 535 490.5 L 455 490.5  A 3.5 3.5 0 0 1 451.5 487 L 451.5 459  Z " stroke-width="1" stroke="#2c8cf0" fill="none" />
    </g>
  </defs>
  <g transform="matrix(1 0 0 1 -447 -452 )">
    <use xlink:href="#widget603" filter="url(#filter602)" />
    <use xlink:href="#widget603" />
  </g>
</svg>