<?xml version="1.0" encoding="utf-8"?>
<svg version="1.1" xmlns:xlink="http://www.w3.org/1999/xlink" width="96px" height="32px" xmlns="http://www.w3.org/2000/svg">
  <defs>
    <filter x="226px" y="458px" width="96px" height="32px" filterUnits="userSpaceOnUse" id="filter600">
      <feOffset dx="0" dy="1" in="SourceAlpha" result="shadowOffsetInner" />
      <feGaussianBlur stdDeviation="2" in="shadowOffsetInner" result="shadowGaussian" />
      <feComposite in2="shadowGaussian" operator="atop" in="SourceAlpha" result="shadowComposite" />
      <feColorMatrix type="matrix" values="0 0 0 0 0.172549019607843  0 0 0 0 0.549019607843137  0 0 0 0 0.941176470588235  0 0 0 1 0  " in="shadowComposite" />
    </filter>
    <g id="widget601">
      <path d="M 230.5 463  A 1.5 1.5 0 0 1 232 461.5 L 316 461.5  A 1.5 1.5 0 0 1 317.5 463 L 317.5 483  A 1.5 1.5 0 0 1 316 484.5 L 232 484.5  A 1.5 1.5 0 0 1 230.5 483 L 230.5 463  Z " fill-rule="nonzero" fill="#ffffff" stroke="none" fill-opacity="0" />
      <path d="M 230.5 463  A 1.5 1.5 0 0 1 232 461.5 L 316 461.5  A 1.5 1.5 0 0 1 317.5 463 L 317.5 483  A 1.5 1.5 0 0 1 316 484.5 L 232 484.5  A 1.5 1.5 0 0 1 230.5 483 L 230.5 463  Z " stroke-width="1" stroke="#2c8cf0" fill="none" />
    </g>
  </defs>
  <g transform="matrix(1 0 0 1 -226 -458 )">
    <use xlink:href="#widget601" filter="url(#filter600)" />
    <use xlink:href="#widget601" />
  </g>
</svg>