<?xml version="1.0" encoding="utf-8"?>
<svg version="1.1" xmlns:xlink="http://www.w3.org/1999/xlink" width="530px" height="125px" xmlns="http://www.w3.org/2000/svg">
  <g transform="matrix(1 0 0 1 -800 -363 )">
    <path d="M 801 367  A 3 3 0 0 1 804 364 L 1326 364  A 3 3 0 0 1 1329 367 L 1329 484  A 3 3 0 0 1 1326 487 L 804 487  A 3 3 0 0 1 801 484 L 801 367  Z " fill-rule="nonzero" fill="#ffffff" stroke="none" />
    <path d="M 800.5 367  A 3.5 3.5 0 0 1 804 363.5 L 1326 363.5  A 3.5 3.5 0 0 1 1329.5 367 L 1329.5 484  A 3.5 3.5 0 0 1 1326 487.5 L 804 487.5  A 3.5 3.5 0 0 1 800.5 484 L 800.5 367  Z " stroke-width="1" stroke-dasharray="9,4" stroke="#dcdee2" fill="none" stroke-dashoffset="0.5" />
  </g>
</svg>