<?xml version="1.0" encoding="utf-8"?>
<svg version="1.1" xmlns:xlink="http://www.w3.org/1999/xlink" width="60px" height="60px" xmlns="http://www.w3.org/2000/svg">
  <g transform="matrix(1 0 0 1 -366 -605 )">
    <path d="M 367 609  A 3 3 0 0 1 370 606 L 422 606  A 3 3 0 0 1 425 609 L 425 661  A 3 3 0 0 1 422 664 L 370 664  A 3 3 0 0 1 367 661 L 367 609  Z " fill-rule="nonzero" fill="#ffffff" stroke="none" />
    <path d="M 366.5 609  A 3.5 3.5 0 0 1 370 605.5 L 422 605.5  A 3.5 3.5 0 0 1 425.5 609 L 425.5 661  A 3.5 3.5 0 0 1 422 664.5 L 370 664.5  A 3.5 3.5 0 0 1 366.5 661 L 366.5 609  Z " stroke-width="1" stroke-dasharray="9,4" stroke="#2c8cf0" fill="none" stroke-dashoffset="0.5" />
  </g>
</svg>