<?xml version="1.0" encoding="utf-8"?>
<svg version="1.1" xmlns:xlink="http://www.w3.org/1999/xlink" width="78px" height="32px" xmlns="http://www.w3.org/2000/svg">
  <g transform="matrix(1 0 0 1 -403 -347 )">
    <path d="M 404 351  A 3 3 0 0 1 407 348 L 477 348  A 3 3 0 0 1 480 351 L 480 375  A 3 3 0 0 1 477 378 L 407 378  A 3 3 0 0 1 404 375 L 404 351  Z " fill-rule="nonzero" fill="#f7f7f7" stroke="none" />
    <path d="M 403.5 351  A 3.5 3.5 0 0 1 407 347.5 L 477 347.5  A 3.5 3.5 0 0 1 480.5 351 L 480.5 375  A 3.5 3.5 0 0 1 477 378.5 L 407 378.5  A 3.5 3.5 0 0 1 403.5 375 L 403.5 351  Z " stroke-width="1" stroke-dasharray="9,4" stroke="#dcdee2" fill="none" stroke-dashoffset="0.5" />
  </g>
</svg>