<?xml version="1.0" encoding="utf-8"?>
<svg version="1.1" xmlns:xlink="http://www.w3.org/1999/xlink" width="84px" height="36px" xmlns="http://www.w3.org/2000/svg">
  <g transform="matrix(1 0 0 1 -418 -732 )">
    <path d="M 419 736  A 3 3 0 0 1 422 733 L 498 733  A 3 3 0 0 1 501 736 L 501 764  A 3 3 0 0 1 498 767 L 422 767  A 3 3 0 0 1 419 764 L 419 736  Z " fill-rule="nonzero" fill="#ffffff" stroke="none" />
    <path d="M 418.5 736  A 3.5 3.5 0 0 1 422 732.5 L 498 732.5  A 3.5 3.5 0 0 1 501.5 736 L 501.5 764  A 3.5 3.5 0 0 1 498 767.5 L 422 767.5  A 3.5 3.5 0 0 1 418.5 764 L 418.5 736  Z " stroke-width="1" stroke-dasharray="9,4" stroke="#dcdee2" fill="none" stroke-dashoffset="0.5" />
  </g>
</svg>