<?xml version="1.0" encoding="utf-8"?>
<svg version="1.1" xmlns:xlink="http://www.w3.org/1999/xlink" width="143px" height="32px" xmlns="http://www.w3.org/2000/svg">
  <g transform="matrix(1 0 0 1 -889 -1062 )">
    <path d="M 890 1066  A 3 3 0 0 1 893 1063 L 1028 1063  A 3 3 0 0 1 1031 1066 L 1031 1090  A 3 3 0 0 1 1028 1093 L 893 1093  A 3 3 0 0 1 890 1090 L 890 1066  Z " fill-rule="nonzero" fill="#ffffff" stroke="none" />
    <path d="M 889.5 1066  A 3.5 3.5 0 0 1 893 1062.5 L 1028 1062.5  A 3.5 3.5 0 0 1 1031.5 1066 L 1031.5 1090  A 3.5 3.5 0 0 1 1028 1093.5 L 893 1093.5  A 3.5 3.5 0 0 1 889.5 1090 L 889.5 1066  Z " stroke-width="1" stroke-dasharray="9,4" stroke="#2c8cf0" fill="none" stroke-dashoffset="0.5" />
  </g>
</svg>