<?xml version="1.0" encoding="utf-8"?>
<svg version="1.1" xmlns:xlink="http://www.w3.org/1999/xlink" width="12px" height="12px" xmlns="http://www.w3.org/2000/svg">
  <g transform="matrix(1 0 0 1 -602 -566 )">
    <path d="M 608 567  C 610.8 567  613 569.2  613 572  C 613 574.8  610.8 577  608 577  C 605.2 577  603 574.8  603 572  C 603 569.2  605.2 567  608 567  Z " fill-rule="nonzero" fill="#ffffff" stroke="none" />
    <path d="M 608 567  C 610.8 567  613 569.2  613 572  C 613 574.8  610.8 577  608 577  C 605.2 577  603 574.8  603 572  C 603 569.2  605.2 567  608 567  Z " stroke-width="2" stroke="#cccccc" fill="none" />
  </g>
</svg>