<?xml version="1.0" encoding="utf-8"?>
<svg version="1.1" xmlns:xlink="http://www.w3.org/1999/xlink" width="8px" height="8px" xmlns="http://www.w3.org/2000/svg">
  <g transform="matrix(1 0 0 1 -245 -297 )">
    <path d="M 249 298  C 250.68 298  252 299.32  252 301  C 252 302.68  250.68 304  249 304  C 247.32 304  246 302.68  246 301  C 246 299.32  247.32 298  249 298  Z " fill-rule="nonzero" fill="#ffffff" stroke="none" />
    <path d="M 249 298  C 250.68 298  252 299.32  252 301  C 252 302.68  250.68 304  249 304  C 247.32 304  246 302.68  246 301  C 246 299.32  247.32 298  249 298  Z " stroke-width="2" stroke="#2c8cf0" fill="none" />
  </g>
</svg>